<svg width="100" height="100" viewBox="0 0 100 100" fill="none" xmlns="http://www.w3.org/2000/svg">
<g clip-path="url(#clip0_162_2)">
<rect width="100" height="100" fill="#333333"/>
<path d="M50.4375 61.625C54.8505 61.625 59.1644 60.3164 62.8337 57.8647C66.5029 55.4129 69.3628 51.9282 71.0516 47.8511C72.7403 43.7741 73.1822 39.2878 72.3213 34.9596C71.4603 30.6314 69.3353 26.6556 66.2148 23.5352C63.0944 20.4147 59.1187 18.2897 54.7905 17.4287C50.4623 16.5678 45.976 17.0097 41.8989 18.6984C37.8218 20.3872 34.3371 23.2471 31.8853 26.9163C29.4336 30.5856 28.125 34.8995 28.125 39.3125C28.125 45.2301 30.4758 50.9054 34.6602 55.0898C38.8446 59.2742 44.5199 61.625 50.4375 61.625ZM50.4375 68C36.6077 68 9 76.5425 9 93.5V106.25H91.875V93.5C91.875 76.5425 64.2673 68 50.4375 68Z" fill="#AAAAAA"/>
</g>
<defs>
<clipPath id="clip0_162_2">
<rect width="100" height="100" fill="white"/>
</clipPath>
</defs>
</svg>
